# xmcd
#
# Track frame offsets:
#	150
#	18700
#	32970
#	50930
#	61530
#	79795
#	95560
#	114650
#	129305
#	143900
#	160780
#	174860
#	195170
#	210890
#	226345
#	242180
#	259640
#	275480
#
# Disc length: 3827 seconds
#
# Revision: 0
# Processed by: cddbd v1.4PL0 Copyright (c) Steve Scherf et al.
# Submitted via: dBpowerAMP V4.0
#
DISCID=ef0ef112
DTITLE=Matti Esko - Parhaat
DYEAR=1995
DGENRE=
TTITLE0=Rekkamies
TTITLE1=Lämmin ja niin tuttu
TTITLE2=Jalanjäljet rantahiekkaan jää 
TTITLE3=Oon tiellä taas
TTITLE4=Tunteiden tumma ilta
TTITLE5=Yöradio
TTITLE6=Keikka Ouluun
TTITLE7=Pohjantuulten haitari soi
TTITLE8=Pääsi rinnallein painuu
TTITLE9=Reissumies
TTITLE10=Rankan päivän jälkeen
TTITLE11=Onnekas mies
TTITLE12=Tulen Kuusamoon
TTITLE13=Olet tosi hyvännäköinen
TTITLE14=Tää tanssi meidän on
TTITLE15=Näin Suomi pysyy pyörillään
TTITLE16=Risteysasema
TTITLE17=Kesän suukot talvi vei
EXTD=
EXTT0=
EXTT1=
EXTT2=
EXTT3=
EXTT4=
EXTT5=
EXTT6=
EXTT7=
EXTT8=
EXTT9=
EXTT10=
EXTT11=
EXTT12=
EXTT13=
EXTT14=
EXTT15=
EXTT16=
EXTT17=
PLAYORDER=
